<svg xmlns="http://www.w3.org/2000/svg" viewBox="437 119 540 540" width="540" height="540" role="img" aria-label="Xidig">
  <path d="M580 178C589.966 186.479 599.096 195.942 608.329 205.198C610.822 207.697 613.32 210.189 615.818 212.682C617.427 214.291 619.036 215.901 620.645 217.512C621.38 218.245 622.116 218.979 622.873 219.734C626.206 223.082 629.444 226.461 632.526 230.041C636.115 234.202 639.986 238.01 643.937 241.824C645.424 243.279 646.91 244.734 648.395 246.189C650.71 248.455 653.029 250.715 655.361 252.963C657.629 255.153 659.878 257.362 662.125 259.574C662.83 260.245 663.535 260.916 664.261 261.607C668.959 266.278 668.959 266.278 669.139 269.47C668.763 270.305 668.387 271.14 668 272C667.513 273.211 667.027 274.422 666.525 275.669C665.907 277.081 665.283 278.491 664.656 279.898C663.98 281.445 663.304 282.992 662.629 284.539C661.565 286.958 660.499 289.376 659.429 291.793C658.393 294.137 657.368 296.486 656.344 298.836C656.024 299.55 655.704 300.263 655.375 300.999C653.498 305.32 652.31 309.239 652 314C653.324 316.545 653.324 316.545 655.562 318.75C659.927 323.689 663.877 328.791 667.75 334.125C672.37 340.449 677.041 346.726 681.812 352.937C682.351 353.639 682.89 354.341 683.445 355.063C684.483 356.415 685.521 357.766 686.559 359.118C703.848 381.695 703.848 381.695 706 386C706.495 288.485 706.495 288.485 707 189C710.244 192.243 711.703 195.375 713.477 199.5C713.803 200.244 714.13 200.987 714.466 201.754C715.164 203.343 715.859 204.934 716.55 206.527C718.345 210.657 720.162 214.777 721.977 218.898C722.507 220.105 722.507 220.105 723.048 221.335C725.606 227.143 728.246 232.906 731 238.625C733.936 244.735 736.793 250.875 739.562 257.062C740.084 258.217 740.084 258.217 740.615 259.395C743 264.761 743 264.761 743 267C748.631 262.205 753.935 257.183 759.122 251.913C759.89 251.136 760.659 250.359 761.451 249.559C763.108 247.885 764.764 246.21 766.419 244.534C769.955 240.955 773.501 237.386 777.047 233.816C783.632 227.186 790.213 220.552 796.776 213.901C801.359 209.259 805.953 204.63 810.556 200.008C812.297 198.256 814.032 196.5 815.763 194.738C827.316 182.989 839.01 171.412 855 166C855.868 165.703 856.735 165.407 857.629 165.102C874.869 160.201 892.752 161.812 909 169C910.034 169.445 911.068 169.889 912.133 170.348C919.92 174.153 925.928 179.946 932 186C932.67 186.647 933.341 187.294 934.031 187.961C946.275 200.705 951.691 218.538 951.469 235.875C950.67 256.518 942.009 274.022 927 288C922.719 291.916 918.324 295.688 913.88 299.418C911.464 301.451 909.07 303.509 906.676 305.568C903.213 308.545 899.741 311.511 896.27 314.479C889.027 320.677 881.804 326.896 874.606 333.144C869.843 337.276 865.06 341.382 860.27 345.48C855.999 349.137 851.746 352.814 847.5 356.5C842.591 360.758 837.678 365.014 832.75 369.25C832.176 369.744 831.602 370.238 831.01 370.746C826.522 374.59 821.944 378.305 817.305 381.965C814.869 384.115 812.954 386.411 811 389C817.906 395.489 824.859 401.788 832.254 407.723C835.797 410.661 839.154 413.782 842.522 416.916C845.733 419.887 849.026 422.7 852.437 425.437C857.216 429.281 861.692 433.37 866.164 437.558C869.511 440.676 872.93 443.636 876.5 446.5C880.667 449.843 884.604 453.351 888.5 457C893.261 461.459 898.165 465.638 903.254 469.723C906.794 472.659 910.152 475.776 913.513 478.912C916.793 481.953 920.177 484.786 923.687 487.562C937.637 498.907 948.638 514.808 951 533C952.464 555.737 946.648 575.783 931.687 593.25C920.785 604.889 904.326 614.014 888.22 615.206C885.206 615.304 882.203 615.329 879.187 615.312C878.124 615.308 877.061 615.304 875.966 615.3C868.604 615.194 861.953 614.566 855 612C854.172 611.733 853.345 611.466 852.492 611.191C839.548 606.627 829.647 597.398 820 588C819.05 587.096 818.1 586.193 817.121 585.262C815 583 815 583 815 581C814.01 580.67 813.02 580.34 812 580C810.42 578.399 810.42 578.399 808.747 576.377C805.353 572.38 801.781 568.658 798.055 564.973C797.4 564.322 796.746 563.67 796.072 562.999C794.666 561.601 793.259 560.203 791.852 558.807C789.626 556.599 787.404 554.388 785.184 552.175C778.875 545.89 772.56 539.612 766.241 533.337C762.364 529.487 758.492 525.632 754.624 521.774C753.149 520.306 751.673 518.84 750.194 517.375C748.138 515.338 746.088 513.295 744.039 511.25C743.424 510.644 742.808 510.037 742.174 509.412C738 505.228 738 505.228 738 503C737.405 502.742 736.81 502.484 736.197 502.218C733.807 500.893 732.582 499.607 730.855 497.504C726.556 492.431 721.973 487.678 717.312 482.937C716.471 482.059 715.63 481.18 714.764 480.275C713.545 479.039 713.545 479.039 712.301 477.777C711.205 476.652 711.205 476.652 710.087 475.504C708.164 473.77 708.164 473.77 706.069 474.187C703.511 475.192 702.526 476.363 700.809 478.497C696.806 483.28 692.477 487.649 688.055 492.043C687.187 492.909 686.319 493.775 685.426 494.668C683.554 496.536 681.681 498.403 679.806 500.269C676.835 503.226 673.868 506.187 670.902 509.149C664.07 515.969 657.233 522.784 650.396 529.599C644.124 535.85 637.854 542.103 631.587 548.36C628.645 551.297 625.7 554.231 622.754 557.164C620.482 559.426 618.214 561.692 615.945 563.957C615.14 564.757 614.334 565.557 613.505 566.382C609.317 570.569 605.292 574.837 601.434 579.332C586.607 596.58 568.626 612.702 545 615C523.759 616.064 504.704 612.977 488.008 598.82C487.345 598.22 486.683 597.619 486 597C485.255 596.358 484.51 595.716 483.742 595.055C472.44 584.672 464.019 568.44 462.761 553.078C462.192 539.629 462.064 527.324 468 515C468.535 513.839 469.07 512.677 469.621 511.48C476.255 498.541 486.938 489.188 498.223 480.273C501.441 477.639 504.468 474.844 507.5 472C512.238 467.561 517.121 463.409 522.187 459.344C525.398 456.668 528.45 453.856 531.5 451C536.239 446.562 541.121 442.409 546.187 438.344C549.398 435.668 552.45 432.856 555.5 430C560.261 425.541 565.165 421.362 570.254 417.277C573.792 414.343 577.147 411.226 580.509 408.094C584.688 404.225 589.07 400.651 593.508 397.082C596.889 394.257 599.981 391.205 603 388C596.719 382.18 590.349 376.594 583.684 371.215C581.053 369.044 578.521 366.798 576 364.5C572.583 361.385 569.095 358.408 565.5 355.5C561.037 351.89 556.773 348.116 552.531 344.25C549.912 341.921 547.225 339.704 544.5 337.5C540.905 334.592 537.417 331.615 534 328.5C530.68 325.477 527.302 322.575 523.812 319.75C517.4 314.555 511.19 309.139 504.97 303.716C502.321 301.409 499.666 299.11 497.009 296.811C495.72 295.695 494.432 294.575 493.147 293.454C490.661 291.287 488.178 289.142 485.598 287.086C476.008 279.376 470.025 268.458 466 257C465.742 256.373 465.485 255.746 465.22 255.1C462.646 248.396 462.46 242.003 462.5 234.875C462.506 233.676 462.513 232.477 462.52 231.241C462.711 221.928 463.856 214.449 468 206C468.289 205.404 468.579 204.809 468.877 204.195C478.188 185.454 493.053 172.927 512.562 165.676C535.755 158.553 560.573 163.8 580 178Z" fill="#2E78B0"/>
  <path d="M909 169C910.034 169.445 911.068 169.889 912.133 170.348C919.92 174.153 925.928 179.946 932 186C933.005 186.971 933.005 186.971 934.031 187.961C946.275 200.705 951.691 218.538 951.469 235.875C950.67 256.518 942.009 274.022 927 288C922.719 291.916 918.324 295.688 913.88 299.418C911.464 301.451 909.07 303.509 906.676 305.568C903.213 308.545 899.741 311.511 896.27 314.479C889.027 320.677 881.804 326.896 874.606 333.144C869.843 337.276 865.06 341.382 860.27 345.48C855.999 349.137 851.746 352.814 847.5 356.5C828.138 373.295 828.138 373.295 820.25 379.687C815.864 383.245 811.677 386.977 807.504 390.781C803.47 394.355 799.247 397.684 795 401C796.513 408.649 798.855 415.878 801.375 423.25C802.155 425.546 802.934 427.843 803.711 430.141C804.054 431.146 804.398 432.152 804.751 433.188C805.849 436.478 806.862 439.79 807.877 443.106C809.933 449.817 812.085 456.494 814.258 463.168C815.056 465.632 815.854 468.096 816.652 470.561C817.892 474.386 819.132 478.211 820.378 482.034C821.594 485.764 822.801 489.497 824.008 493.23C824.379 494.363 824.749 495.495 825.132 496.662C827.191 503.057 828.868 509.375 830 516C826.579 513.33 823.599 510.648 820.781 507.344C816.985 502.955 813.046 498.718 809.062 494.5C808.398 493.792 807.733 493.085 807.049 492.355C803.036 488.097 798.954 483.923 794.784 479.817C793.022 478.023 791.377 476.167 789.75 474.25C786.664 470.655 783.368 467.327 780 464C776.123 460.17 772.438 456.279 768.906 452.125C766.377 449.306 763.694 446.661 761 444C757.757 440.797 754.571 437.609 751.625 434.125C748.293 430.202 744.656 426.618 741 423C736.79 418.834 732.728 414.647 728.902 410.121C725.717 406.569 722.292 403.251 718.881 399.918C717.828 398.882 716.79 397.83 715.769 396.762C714.058 394.983 714.058 394.983 712.176 393.594C708.56 390.415 707.148 387.908 706.367 383.112C706.043 378.048 706.134 372.986 706.205 367.916C706.207 365.964 706.206 364.012 706.202 362.06C706.2 356.775 706.241 351.492 706.29 346.207C706.334 340.679 706.338 335.151 706.346 329.623C706.368 319.161 706.426 308.7 706.496 298.238C706.574 286.325 706.613 274.412 706.648 262.499C706.721 237.999 706.844 213.5 707 189C710.261 192.016 711.747 195.476 713.477 199.5C713.803 200.244 714.13 200.987 714.466 201.754C715.164 203.343 715.859 204.934 716.55 206.527C718.345 210.657 720.162 214.777 721.977 218.898C722.33 219.702 722.683 220.507 723.048 221.335C725.606 227.143 728.246 232.906 731 238.625C733.936 244.735 736.793 250.875 739.562 257.062C739.91 257.832 740.257 258.602 740.615 259.395C743 264.761 743 264.761 743 267C748.631 262.205 753.935 257.183 759.122 251.913C759.89 251.136 760.659 250.359 761.451 249.559C763.108 247.885 764.764 246.21 766.419 244.534C769.955 240.955 773.501 237.386 777.047 233.816C783.632 227.186 790.213 220.552 796.776 213.901C801.359 209.259 805.953 204.63 810.556 200.008C812.297 198.256 814.033 196.5 815.763 194.738C827.316 182.989 839.01 171.412 855 166C855.868 165.703 856.735 165.407 857.629 165.102C874.869 160.201 892.752 161.812 909 169Z" fill="#2D78B0"/>
  <path d="M580 178C589.966 186.479 599.096 195.942 608.329 205.198C610.822 207.697 613.32 210.189 615.818 212.682C617.427 214.291 619.036 215.901 620.645 217.512C621.38 218.245 622.116 218.979 622.873 219.735C626.206 223.082 629.444 226.461 632.526 230.041C636.115 234.202 639.986 238.01 643.937 241.824C645.424 243.279 646.91 244.734 648.395 246.189C650.71 248.455 653.029 250.715 655.361 252.963C657.629 255.153 659.878 257.362 662.125 259.574C662.83 260.245 663.535 260.916 664.261 261.607C668.959 266.278 668.959 266.278 669.139 269.47C668.763 270.305 668.387 271.14 668 272C667.513 273.211 667.027 274.422 666.525 275.669C665.907 277.081 665.283 278.491 664.656 279.898C663.98 281.445 663.304 282.992 662.629 284.539C661.565 286.958 660.499 289.376 659.429 291.793C658.393 294.137 657.368 296.486 656.344 298.836C656.024 299.55 655.704 300.263 655.375 300.999C653.498 305.32 652.31 309.239 652 314C653.324 316.545 653.324 316.545 655.562 318.75C659.927 323.689 663.877 328.791 667.75 334.125C672.37 340.449 677.041 346.726 681.812 352.937C682.351 353.639 682.89 354.341 683.445 355.063C684.483 356.415 685.521 357.766 686.559 359.118C690.079 363.715 693.544 368.353 697 373C697.757 374.003 698.513 375.006 699.293 376.039C700.021 377.016 700.75 377.993 701.5 379C702.15 379.866 702.799 380.732 703.469 381.625C704.975 383.961 705.766 385.254 706 388C704.572 389.979 704.572 389.979 702.406 392.047C701.622 392.81 700.839 393.573 700.031 394.359C699.196 395.148 698.361 395.937 697.5 396.75C695.883 398.305 694.268 399.862 692.656 401.422C691.861 402.191 691.066 402.96 690.246 403.752C687.616 406.384 685.205 409.155 682.787 411.981C678.658 416.645 674.111 420.924 669.672 425.289C665.513 429.405 661.555 433.598 657.742 438.035C654.026 442.226 649.957 446.08 645.961 450C642.03 453.885 638.321 457.875 634.715 462.062C631.951 465.185 628.978 468.084 626 471C621.744 475.207 617.636 479.44 613.77 484.012C611.003 487.12 608.014 490.006 605.053 492.928C601.765 496.188 598.696 499.567 595.691 503.086C592.627 506.553 589.303 509.762 586 513C584.999 513.999 583.998 514.998 583 516C584.02 510.622 585.425 505.641 587.312 500.5C589.2 495.354 590.87 490.208 592.375 484.937C594.247 478.396 596.319 471.944 598.5 465.5C601.124 457.735 603.541 449.939 605.816 442.066C608.342 433.336 610.964 424.625 614.187 416.125C614.492 415.263 614.796 414.4 615.109 413.512C615.714 411.807 616.372 410.122 617.078 408.457C618.034 405.656 618.455 403.935 618 401C615.303 397.491 612.101 394.87 608.584 392.203C606.168 390.369 603.841 388.428 601.5 386.5C600.592 385.768 599.685 385.036 598.75 384.281C595.919 381.933 593.206 379.491 590.5 377C586.03 372.886 581.41 369.029 576.684 365.215C574.053 363.044 571.521 360.798 569 358.5C565.583 355.385 562.095 352.408 558.5 349.5C554.037 345.89 549.773 342.116 545.531 338.25C542.912 335.921 540.225 333.704 537.5 331.5C533.037 327.89 528.773 324.116 524.531 320.25C521.912 317.921 519.225 315.704 516.5 313.5C512.037 309.89 507.773 306.116 503.531 302.25C500.912 299.921 498.225 297.704 495.5 295.5C493.666 294.001 491.832 292.501 490 291C489.141 290.304 488.283 289.608 487.398 288.891C477.11 280.163 470.459 269.694 466 257C465.742 256.373 465.485 255.746 465.22 255.1C462.646 248.396 462.46 242.003 462.5 234.875C462.506 233.676 462.513 232.477 462.52 231.241C462.711 221.928 463.856 214.449 468 206C468.289 205.404 468.579 204.809 468.877 204.195C478.188 185.454 493.053 172.927 512.562 165.676C535.755 158.553 560.573 163.8 580 178Z" fill="#2E78B0"/>
  <path d="M707 189C710.261 192.016 711.747 195.476 713.477 199.5C713.803 200.243 714.129 200.987 714.466 201.752C715.163 203.342 715.858 204.932 716.549 206.524C718.349 210.667 720.172 214.8 721.992 218.934C722.346 219.74 722.701 220.545 723.066 221.376C725.536 226.983 728.083 232.546 730.75 238.062C735.519 247.969 739.942 258.024 744.38 268.082C746.678 273.284 749 278.474 751.324 283.664C752.434 286.145 753.543 288.626 754.652 291.107C755.382 292.741 756.114 294.374 756.848 296.006C757.876 298.296 758.899 300.587 759.922 302.879C760.234 303.57 760.546 304.262 760.867 304.974C763 309.772 763 309.772 763 312C807.22 312 851.44 312 897 312C895.745 315.765 894.169 316.694 891.062 319.125C887.268 322.151 883.581 325.224 880 328.5C876.604 331.596 873.138 334.552 869.562 337.438C865.759 340.513 862.099 343.688 858.5 347C854.03 351.114 849.41 354.971 844.684 358.785C842.053 360.956 839.521 363.202 837 365.5C832.7 369.419 828.241 373.092 823.719 376.75C821.078 378.935 818.533 381.192 816 383.5C809.254 389.643 802.126 395.307 795 401C796.513 408.649 798.855 415.878 801.375 423.25C802.155 425.546 802.934 427.843 803.711 430.141C804.054 431.146 804.398 432.152 804.751 433.188C805.849 436.478 806.862 439.79 807.877 443.106C809.933 449.817 812.085 456.494 814.258 463.168C815.056 465.632 815.854 468.096 816.652 470.561C817.892 474.386 819.132 478.211 820.378 482.034C821.594 485.764 822.801 489.497 824.008 493.23C824.379 494.363 824.749 495.496 825.132 496.662C827.191 503.057 828.868 509.375 830 516C826.579 513.33 823.599 510.648 820.781 507.344C816.985 502.955 813.046 498.718 809.062 494.5C808.398 493.792 807.733 493.085 807.049 492.355C803.036 488.097 798.954 483.923 794.784 479.817C793.022 478.023 791.377 476.167 789.75 474.25C786.664 470.655 783.368 467.327 780 464C776.123 460.17 772.438 456.279 768.906 452.125C766.377 449.306 763.694 446.661 761 444C757.757 440.797 754.571 437.609 751.625 434.125C748.293 430.202 744.656 426.618 741 423C736.79 418.834 732.728 414.647 728.902 410.121C725.717 406.569 722.292 403.251 718.881 399.918C717.828 398.882 716.79 397.83 715.769 396.762C714.058 394.983 714.058 394.983 712.176 393.594C708.56 390.415 707.148 387.908 706.367 383.112C706.043 378.048 706.134 372.986 706.205 367.916C706.207 365.964 706.206 364.012 706.202 362.06C706.2 356.775 706.241 351.492 706.29 346.207C706.334 340.679 706.338 335.151 706.346 329.623C706.368 319.161 706.426 308.7 706.496 298.238C706.574 286.325 706.613 274.412 706.648 262.499C706.721 237.999 706.844 213.5 707 189Z" fill="#212121"/>
  <path d="M516 312C533.333 311.79 550.666 311.631 568 311.534C576.049 311.487 584.097 311.424 592.146 311.321C599.163 311.231 606.179 311.173 613.197 311.153C616.911 311.142 620.624 311.114 624.338 311.048C628.49 310.976 632.639 310.974 636.791 310.978C638.015 310.946 639.239 310.914 640.501 310.88C648.671 310.969 648.671 310.969 652.477 313.921C654.525 316.19 656.278 318.478 658 321C659.09 322.435 660.184 323.867 661.281 325.297C662.358 326.778 663.431 328.263 664.5 329.75C669.687 336.879 674.957 343.935 680.312 350.938C680.992 351.827 681.671 352.715 682.371 353.631C683.669 355.329 684.966 357.027 686.264 358.725C689.876 363.459 693.448 368.221 697 373C697.753 373.998 698.506 374.995 699.281 376.023C700.013 377.006 700.746 377.988 701.5 379C702.15 379.866 702.799 380.733 703.469 381.625C704.975 383.961 705.766 385.254 706 388C704.572 389.98 704.572 389.98 702.406 392.047C701.623 392.81 700.839 393.573 700.031 394.359C699.196 395.148 698.361 395.937 697.5 396.75C695.883 398.305 694.268 399.862 692.656 401.422C691.861 402.191 691.066 402.96 690.246 403.752C687.616 406.384 685.205 409.155 682.787 411.981C678.658 416.645 674.111 420.924 669.672 425.289C665.513 429.405 661.555 433.598 657.742 438.035C654.027 442.226 649.957 446.08 645.961 450C642.03 453.885 638.321 457.875 634.715 462.063C631.951 465.185 628.978 468.084 626 471C621.744 475.207 617.636 479.441 613.77 484.012C611.003 487.121 608.014 490.006 605.053 492.928C601.765 496.188 598.696 499.567 595.691 503.086C592.627 506.553 589.303 509.762 586 513C584.999 513.999 583.998 514.998 583 516C584.02 510.622 585.425 505.641 587.312 500.5C589.2 495.354 590.87 490.208 592.375 484.938C594.247 478.397 596.319 471.944 598.5 465.5C601.124 457.736 603.541 449.939 605.816 442.066C608.342 433.336 610.964 424.625 614.188 416.125C614.492 415.263 614.796 414.4 615.109 413.512C615.714 411.808 616.372 410.122 617.078 408.457C618.034 405.656 618.455 403.935 618 401C615.303 397.491 612.101 394.87 608.584 392.203C606.168 390.369 603.841 388.428 601.5 386.5C600.592 385.768 599.685 385.036 598.75 384.281C595.919 381.933 593.206 379.491 590.5 377C586.03 372.886 581.41 369.029 576.684 365.215C574.053 363.044 571.521 360.798 569 358.5C565.583 355.385 562.095 352.408 558.5 349.5C554.037 345.89 549.773 342.116 545.531 338.25C542.912 335.921 540.225 333.704 537.5 331.5C532.942 327.812 528.569 323.967 524.238 320.016C522.321 318.289 520.375 316.63 518.375 315C517.591 314.34 516.808 313.68 516 313C516 312.67 516 312.34 516 312Z" fill="#222222"/>
  <path d="M485 182C485.99 182.33 486.98 182.66 488 183C486.881 184.173 485.755 185.338 484.625 186.5C483.999 187.15 483.372 187.799 482.727 188.469C481 190 481 190 479 190C479 190.66 479 191.32 479 192C478.34 191.67 477.68 191.34 477 191C478.145 189.687 479.291 188.375 480.438 187.062C481.076 186.332 481.714 185.601 482.371 184.848C483.225 183.879 484.087 182.913 485 182Z" fill="#3981B0"/>
  <path d="M899 311C898.34 311.66 897.68 312.32 897 313C894.18 312.977 894.18 312.977 890.875 312.625C889.779 312.514 888.684 312.403 887.555 312.289C886.712 312.194 885.869 312.098 885 312C885 311.67 885 311.34 885 311C886.77 310.805 888.541 310.619 890.312 310.438C891.299 310.333 892.285 310.229 893.301 310.121C896 310 896 310 899 311Z" fill="#3675A4"/>
</svg>
