<svg xmlns="http://www.w3.org/2000/svg" viewBox="437 119 540 540" role="img" aria-label="Xidig"><path d="M580 178L668 266L669 269L655 303L652 314L706 386L707 189L712 197L743 267L829 182L844 171L855 166L877 162L903 167L920 175L938 193L947 210L951 229L949 251L941 271L927 288L811 389L929 492L945 514L951 533L949 557L941 580L932 593L923 601L906 611L888 615L863 614L843 607L817 585L815 581L812 580L740 507L738 503L733 500L708 474L703 476L590 592L569 607L545 615L515 613L494 604L476 586L467 570L463 553L464 529L472 507L486 491L603 388L479 281L471 270L464 250L463 231L464 215L473 197L482 186L493 176L513 166L530 163L548 164L565 169Z" fill="#2E78B0"/><path d="M909 169L920 175L934 188L942 198L947 210L951 236L949 251L945 264L937 277L927 288L795 401L830 516L708 388L706 376L707 189L712 197L743 267L825 186L844 171L858 165L877 162L890 163Z" fill="#2D78B0"/><path d="M580 178L668 266L669 269L655 303L652 314L703 382L706 388L583 516L617 407L618 401L480 282L468 262L464 250L462 238L464 215L473 197L487 181L505 169L521 164L539 163L556 166Z" fill="#2E78B0"/><path d="M707 189L712 197L763 312L897 312L894 317L795 401L830 516L708 388L706 376Z" fill="#212121"/><path d="M516 312L649 312L655 317L705 385L704 390L583 516L617 407L618 401Z" fill="#222222"/><path d="M485 182L488 183L479 190L479 192L477 191Z" fill="#3981B0"/><path d="M899 311L897 313L885 312L893 310Z" fill="#3675A4"/></svg>